<?xml version="1.0" encoding="UTF-8" standalone="no"?>
<!-- Created with Inkscape (http://www.inkscape.org/) -->

<svg
   version="1.1"
   id="svg2"
   xml:space="preserve"
   width="221.21466"
   height="221.21866"
   viewBox="0 0 221.21466 221.21866"
   sodipodi:docname="ppias.svg"
   inkscape:version="1.1 (ce6663b3b7, 2021-05-25)"
   inkscape:export-filename="/home/bob/Projects/apex/static/fixtures/logo/ppias.png"
   inkscape:export-xdpi="96"
   inkscape:export-ydpi="96"
   xmlns:inkscape="http://www.inkscape.org/namespaces/inkscape"
   xmlns:sodipodi="http://sodipodi.sourceforge.net/DTD/sodipodi-0.dtd"
   xmlns="http://www.w3.org/2000/svg"
   xmlns:svg="http://www.w3.org/2000/svg"><defs
     id="defs6"><clipPath
       clipPathUnits="userSpaceOnUse"
       id="clipPath16"><path
         d="M 0,279.467 H 331.733 V 0 H 0 Z"
         id="path14" /></clipPath></defs><sodipodi:namedview
     id="namedview4"
     pagecolor="#ffffff"
     bordercolor="#666666"
     borderopacity="1.0"
     inkscape:pageshadow="2"
     inkscape:pageopacity="0.0"
     inkscape:pagecheckerboard="0"
     showgrid="false"
     inkscape:zoom="4.6857052"
     inkscape:cx="96.356894"
     inkscape:cy="107.13435"
     inkscape:window-width="2488"
     inkscape:window-height="1377"
     inkscape:window-x="72"
     inkscape:window-y="27"
     inkscape:window-maximized="1"
     inkscape:current-layer="g8"
     fit-margin-top="0"
     fit-margin-left="0"
     fit-margin-right="0"
     fit-margin-bottom="0"
     inkscape:snap-page="false" /><g
     id="g8"
     inkscape:groupmode="layer"
     inkscape:label="Logo IEA gold"
     transform="matrix(1.3333333,0,0,-1.3333333,-104.3932,343.66039)"><g
       id="g70259"
       transform="matrix(0.73137076,0,0,0.73137076,43.315878,37.841777)"
       style="fill:#ffffff"><g
         id="g34"
         transform="matrix(1.139012,0,0,1.139012,191.37651,173.1747)"
         style="fill:#ffffff"><path
           d="M 0,0 V 5.57 H 0.435 L 0.836,8.04 0.153,8.564 H -0.934 L -1.642,8.04 -1.298,5.57 h 0.491 V 0 h -0.012 c -0.772,0.422 -1.889,0.689 -3.096,0.8 v 6.087 h 0.438 l 0.394,2.474 -0.68,0.524 H -4.849 L -5.554,9.361 -5.211,6.887 h 0.495 V 0.841 C -6.576,0.905 -8.507,0.632 -9.646,0 h -32.771 v 5.57 h 0.435 l 0.4,2.47 -0.683,0.524 h -1.086 l -0.705,-0.524 0.345,-2.47 h 0.49 V 0 h -0.025 c -0.764,0.419 -1.883,0.686 -3.084,0.8 v 6.087 h 0.434 l 0.403,2.474 -0.683,0.524 h -1.091 l -0.704,-0.524 0.341,-2.474 h 0.494 V 0.841 C -48.995,0.908 -50.931,0.635 -52.076,0 h -36.99 v -2.064 h 37.619 l 0.267,0.19 c 1.27,0.911 5.752,0.909 7.053,-0.003 l 0.267,-0.187 h 34.839 l 0.266,0.19 c 1.274,0.911 5.751,0.909 7.05,-0.003 l 0.267,-0.187 H 36.169 V 0 Z"
           style="fill:#ffffff;fill-opacity:1;fill-rule:nonzero;stroke:none"
           id="path36" /></g><g
         id="g38"
         transform="matrix(1.139012,0,0,1.139012,161.25078,164.14325)"
         style="fill:#ffffff"><path
           d="m 0,0 c -10.304,0 -18.693,-6.649 -18.693,-14.823 h 1.933 c 0,6.538 8.088,11.857 16.76,11.857 8.672,0 16.761,-5.319 16.761,-11.857 h 1.933 C 18.694,-6.649 10.308,0 0,0"
           style="fill:#ffffff;fill-opacity:1;fill-rule:nonzero;stroke:none"
           id="path40" /></g><g
         id="g42"
         transform="matrix(1.139012,0,0,1.139012,161.25534,164.14325)"
         style="fill:#ffffff"><path
           d="m 0,0 c -10.308,0 -18.697,-6.649 -18.697,-14.823 h 1.933 c 0,6.538 8.089,11.857 16.764,11.857 8.669,0 16.761,-5.319 16.761,-11.857 H 18.69 C 18.69,-6.649 10.301,0 0,0"
           style="fill:#ffffff;fill-opacity:1;fill-rule:nonzero;stroke:none"
           id="path44" /></g><g
         id="g46"
         transform="matrix(1.139012,0,0,1.139012,161.25135,164.14325)"
         style="fill:#ffffff"><path
           d="m 0,0 c -10.308,0 -18.694,-6.649 -18.694,-14.823 h 1.932 c 0,6.538 8.09,11.857 16.762,11.857 8.672,0 16.76,-5.319 16.76,-11.857 h 1.934 C 18.694,-6.649 10.305,0 0,0"
           style="fill:#ffffff;fill-opacity:1;fill-rule:nonzero;stroke:none"
           id="path48" /></g><g
         id="g50"
         transform="matrix(1.139012,0,0,1.139012,185.41777,169.43065)"
         style="fill:#ffffff"><path
           d="M 0,0 C -0.763,0 -2.344,-0.082 -3.461,-0.61 H -38.985 C -40.1,-0.082 -41.68,0 -42.445,0 c -0.761,0 -2.34,-0.082 -3.456,-0.61 h -37.934 l 1.936,-1.549 h 34.867 v -8.037 l 0.33,-0.232 c 0.84,-0.578 2.346,-0.765 3.484,-0.813 v -8.221 h 1.551 v 8.221 c 1.139,0.048 2.644,0.235 3.482,0.813 l 0.329,0.232 v 8.037 h 33.267 v -8.037 l 0.334,-0.232 c 0.831,-0.578 2.34,-0.765 3.481,-0.813 v -8.221 h 1.549 v 8.221 c 1.136,0.048 2.645,0.235 3.48,0.813 l 0.336,0.232 v 8.037 h 34.347 l 2.463,1.549 H 3.461 C 2.343,-0.082 0.762,0 0,0 m -39.401,-9.323 h -6.084 v 7.196 c 0.328,0.248 1.438,0.578 3.04,0.578 1.604,0 2.715,-0.33 3.044,-0.578 z m 42.442,0 h -6.083 v 7.196 c 0.327,0.248 1.438,0.578 3.042,0.578 1.6,0 2.712,-0.33 3.041,-0.578 z"
           style="fill:#ffffff;fill-opacity:1;fill-rule:nonzero;stroke:none"
           id="path52" /></g></g><g
       aria-label="IEA"
       transform="matrix(1.1681872,0,0,-1.1681872,-28.859057,-34.391602)"
       id="text5386"
       style="font-weight:bold;font-size:42px;line-height:1.25;font-family:'Bodoni Moda';-inkscape-font-specification:'Bodoni Moda Bold';stroke-width:0.442254" /><g
       aria-label="PPIAS"
       transform="matrix(0.80976116,0,0,-0.80976116,30.026137,33.786114)"
       id="text3252"
       style="font-size:49.3973px;line-height:1.25;font-family:'Open Sans Condensed';-inkscape-font-specification:'Open Sans Condensed, ';stroke-width:0.926199;fill:#ffffff"><path
         d="m 103.9002,-227.46053 q 4.44575,0 7.2861,1.33373 2.84034,1.30903 4.19877,3.7048 1.35842,2.39577 1.35842,5.60659 0,3.21083 -1.35842,5.5572 -1.35843,2.32167 -4.19877,3.5813 -2.84035,1.25963 -7.2861,1.25963 h -5.409008 v 15.04148 h 4.421058 v 0.96325 H 89.327993 v -0.96325 h 4.445757 v -35.12148 h -4.445757 v -0.96325 z m -5.409008,20.08001 h 5.409008 q 1.7536,0 3.13673,-0.83976 1.38312,-0.83975 2.32167,-2.22288 0.96325,-1.38312 1.45722,-3.03793 0.49397,-1.67951 0.49397,-3.33432 0,-1.65481 -0.49397,-3.35902 -0.49397,-1.7042 -1.45722,-3.13672 -0.93855,-1.43253 -2.32167,-2.29698 -1.38313,-0.88915 -3.13673,-0.88915 h -5.409008 z"
         style="font-family:'Bodoni Moda';-inkscape-font-specification:'Bodoni Moda';fill:#ffffff"
         id="path59518" /><path
         d="m 133.71139,-227.46053 q -4.44576,0 -7.2861,1.33373 -2.84035,1.30903 -4.19877,3.7048 -1.35843,2.39577 -1.35843,5.60659 0,3.21083 1.35843,5.5572 1.35842,2.32167 4.19877,3.5813 2.84034,1.25963 7.2861,1.25963 h 5.40901 v 15.04148 h -4.42106 v 0.96325 h 13.58425 v -0.96325 h -4.44575 v -35.12148 h 4.44575 v -0.96325 z m 5.40901,20.08001 h -5.40901 q -1.7536,0 -3.13673,-0.83976 -1.38312,-0.83975 -2.32167,-2.22288 -0.96325,-1.38312 -1.45722,-3.03793 -0.49397,-1.67951 -0.49397,-3.33432 0,-1.65481 0.49397,-3.35902 0.49397,-1.7042 1.45722,-3.13672 0.93855,-1.43253 2.32167,-2.29698 1.38313,-0.88915 3.13673,-0.88915 h 5.40901 z"
         style="font-family:'Bodoni Moda';-inkscape-font-specification:'Bodoni Moda';fill:#ffffff"
         id="path59520" /><path
         d="m 152.40818,-190.41255 v -0.96325 h 5.4337 v -35.12148 h -5.4337 v -0.96325 h 16.05412 v 0.96325 h -5.92768 v 35.12148 h 5.92768 v 0.96325 z"
         style="font-family:'Bodoni Moda';-inkscape-font-specification:'Bodoni Moda';fill:#ffffff"
         id="path59522" /><path
         d="m 180.66339,-201.99622 v -0.96325 h 16.00473 v 0.96325 z m 9.33609,-26.18057 12.74451,36.80099 h 3.85299 v 0.96325 h -14.32522 v -0.96325 h 5.06322 l -9.70657,-30.05826 -10.47223,30.05826 h 5.23612 v 0.96325 h -10.86741 v -0.96325 h 4.51986 l 12.94209,-36.80099 z"
         style="font-family:'Bodoni Moda';-inkscape-font-specification:'Bodoni Moda';fill:#ffffff"
         id="path59524" /><path
         d="m 223.44142,-189.69629 q -3.18612,0 -5.5078,-0.98795 -2.32167,-1.01264 -3.87769,-2.71685 l -2.29697,3.48251 h -0.83975 v -10.15114 h 0.96324 q 0.39518,2.02529 1.25963,3.72949 0.86446,1.70421 2.22288,2.96384 1.38313,1.25963 3.26022,1.97589 1.9018,0.69156 4.37167,0.69156 2.61805,0 4.51985,-0.88915 1.92649,-0.88915 2.96384,-2.56866 1.03734,-1.7042 1.03734,-4.14937 0,-2.17348 -1.06204,-3.6554 -1.06204,-1.50662 -2.84035,-2.59336 -1.7536,-1.11144 -3.85299,-2.02529 -2.09938,-0.93855 -4.19877,-1.95119 -2.09938,-1.01265 -3.85299,-2.34637 -1.7536,-1.35843 -2.84034,-3.26022 -1.06204,-1.9265 -1.06204,-4.66805 0,-2.71685 1.38312,-4.76684 1.38313,-2.07469 3.7048,-3.21082 2.32167,-1.16084 5.16202,-1.16084 2.44516,0 4.47045,0.79036 2.04999,0.76565 3.58131,2.34637 l 2.29697,-3.13673 h 0.81506 v 10.15114 h -0.93855 q -0.49398,-3.08733 -1.8771,-5.08792 -1.35843,-2.02529 -3.38371,-2.98853 -2.0006,-0.98795 -4.49516,-0.98795 -3.53191,0 -5.35961,1.67951 -1.803,1.65481 -1.803,4.39636 0,1.97589 1.03735,3.33432 1.06204,1.35842 2.79094,2.37107 1.72891,1.01264 3.8036,1.92649 2.07468,0.91385 4.14937,1.97589 2.07469,1.06205 3.80359,2.49457 1.72891,1.40782 2.76625,3.45781 1.06204,2.02529 1.06204,4.93973 0,3.21082 -1.38312,5.60659 -1.38313,2.37107 -3.92709,3.6801 -2.54396,1.30903 -6.02647,1.30903 z"
         style="font-family:'Bodoni Moda';-inkscape-font-specification:'Bodoni Moda';fill:#ffffff"
         id="path59526" /></g><rect
       style="fill:none;stroke:#ffffff;stroke-width:7.50000019;stroke-miterlimit:4;stroke-dasharray:none;stroke-opacity:1"
       id="rect1213"
       width="163.51294"
       height="163.51294"
       x="79.493935"
       y="-256.31906"
       transform="scale(1,-1)"
       inkscape:export-filename="/home/bob/Projects/starter/static/carre.png"
       inkscape:export-xdpi="260.72"
       inkscape:export-ydpi="260.72" /></g></svg>
